# xmcd
#
# Track frame offsets:
#   150
#   14729
#   29291
#   50735
#   70088
#   92515
#   101214
#   117866
#   139295
#   155660
#   165190
#   190624
#   206879
#   221795
#   251383
#   264641
#   289097
#   308326
#
# Disc length: 4456 seconds
#
# Revision: 0
# Processed by: cddbd v1.4PL0 Copyright (c) Steve Scherf et al.
# Submitted via: uFREEDB 1.6.0
#
DISCID=05116612
DTITLE=Sir Elwoodin Hiljaiset Värit - Varjoissa vapaan maailman
DYEAR=1900
DGENRE=Blues
TTITLE0=Sellaista se on
TTITLE1=Älä itke
TTITLE2=Vanhoilta vaan
TTITLE3=Varjoissa vapaan maailman
TTITLE4=Kello kahdeksan aamulla Tukholman aikaa
TTITLE5=Hei äiti
TTITLE6=Kulkuriveljeni Jan
TTITLE7=Jumala rankaisee Helsinkiä tänä yönä
TTITLE8=Tango
TTITLE9=Pikku Minna
TTITLE10=Kirje Osloon
TTITLE11=Ikkunas alla
TTITLE12=Lähtö
TTITLE13=Kerran elämässä
TTITLE14=Neiti Kevät
TTITLE15=Kylätie
TTITLE16=Luo kulkurin iltätähden
TTITLE17=Elisa
EXTD=
EXTT0=
EXTT1=
EXTT2=
EXTT3=
EXTT4=
EXTT5=
EXTT6=
EXTT7=
EXTT8=
EXTT9=
EXTT10=
EXTT11=
EXTT12=
EXTT13=
EXTT14=
EXTT15=
EXTT16=
EXTT17=
PLAYORDER=
